<svg xmlns="http://www.w3.org/2000/svg" id="ИКОНКИ" style="max-height: 500px" viewBox="155.25 155.25 689.5 689.5">
  <defs>
    <style>
      .cls-1 {
        fill: #ddd;
      }
    </style>
  </defs>
  <g>
    <circle r="344.75225" cy="500" cx="500" class="cls-1"/>
    <path d="M443.88744,374.67787a32.76841,32.76841,0,0,1,1.23529-3.10588,54.73994,54.73994,0,0,1,3.61588-7.18325,39.95084,39.95084,0,0,1,6.15484-7.20335,31.019,31.019,0,0,1,7.77937-5.3855,47.01143,47.01143,0,0,1,4.53681-2.04615,37.913,37.913,0,0,1,5.30128-1.617c1.69119-.38859,1.97646-.5647,10.85753-1.52408q59.88883.08869,119.77785.04445h2.49118c-.1386-43.9791.00258.06787-.162-44.11644q-58.35,0-116.70007.02865c-2.83317.0031-11.21747.56751-13.49456.82676-2.62879.27016-16.60523,2.24663-23.66665,4.78739a100.31372,100.31372,0,0,0-14.03835,6.11277c-9.50984,5.63563-13.72369,9.18173-23.19588,20.26163-3.35222,3.92119-6.81013,9.34359-9.916,18.09651a101.55993,101.55993,0,0,0-5.35562,19.94517,109.91416,109.91416,0,0,0-1.60551,16.00835c-.35837,10.595-.03054,21.20245-.03054,31.80377v2.70425H348.80378v41.58087h48.73528V686.20046h44.14V464.69453H561.6524v221.492h43.97548V423.02872H441.58876c0-.67271-.53926-26.33434.51632-38.562a50.23667,50.23667,0,0,1,.82942-6.75361"/>
  </g>
</svg>