<svg width="1200" height="630" xmlns="http://www.w3.org/2000/svg">
  <!-- Gradient background -->
  <defs>
    <linearGradient id="grad-metallurgy-bot" x1="0%" y1="0%" x2="100%" y2="100%">
      <stop offset="0%" style="stop-color:#1e293b;stop-opacity:1" />
      <stop offset="100%" style="stop-color:#0f172a;stop-opacity:1" />
    </linearGradient>
    <filter id="glow">
      <feGaussianBlur stdDeviation="4" result="coloredBlur"/>
      <feMerge>
        <feMergeNode in="coloredBlur"/>
        <feMergeNode in="SourceGraphic"/>
      </feMerge>
    </filter>
  </defs>
  
  <!-- Background -->
  <rect width="1200" height="630" fill="url(#grad-metallurgy-bot)"/>
  
  <!-- Pattern overlay -->
  <g opacity="0.1">
    <circle cx="200" cy="100" r="100" fill="#f59e0b" />
    <circle cx="1000" cy="500" r="150" fill="#f59e0b" />
    <circle cx="600" cy="50" r="80" fill="#f59e0b" />
  </g>
  
  <!-- Icon -->
  <g transform="translate(600, 315)" filter="url(#glow)">
    <g transform="translate(-80, -80) scale(6.67)">
      <path d="M12 8V4m0 4h.01M16 8h.01M8 8h.01M8.35 15.65L6 18m10.35-2.35L18 18M3 12a9 9 0 0 0 9 9 9 9 0 0 0 9-9 9 9 0 0 0-9-9 9 9 0 0 0-9 9z" 
            fill="none" 
            stroke="#f59e0b" 
            stroke-width="2" 
            stroke-linecap="round" 
            stroke-linejoin="round"/>
    </g>
  </g>
</svg>